<?xml version="1.0" encoding="UTF-8"?>
<svg id="Capa_2" data-name="Capa 2" xmlns="http://www.w3.org/2000/svg" viewBox="0 0 3334.12 133.96">
  <defs>
    <style>
      .cls-1, .cls-2 {
        fill: #fff;
      }

      .cls-2 {
        fill-rule: evenodd;
      }
    </style>
  </defs>
  <g id="Capa_1-2" data-name="Capa 1">
    <g>
      <g>
        <path class="cls-2" d="M1806.43,44.77c-27.05.03-15.72-13.88,1.63-14.2,31.02-.57,31.79-2.87,38.65,6.8l12.2-.5,1.49-13.3c-11.82-9.25-37.36-5.69-52.22-5.69-17.49-.01-38.71,15.55-31.4,31.67,7.62,16.79,39.18,3.18,54.17,9.6,1.14,1.72,4.6-2.41,1.37,7.35-2.9,8.78-40.61,5.49-50.08,5.07-6.11-7.13.93-7.23-15.86-5.83-8.1,23.56,14.5,18.58,47.06,18.57,36.66-.01,51.1-39.18,15.76-39.53l-22.77-.02Z"/>
        <path class="cls-2" d="M2045.52,83.8c12.98,1.68,44.83,1.27,58.62.53,18.96-1.01,26.02-12.07,31.58-27.35,5.25-14.46,16.66-37.3-6.94-39.12-12.01-.93-48.37-.97-60.1.52l-23.15,65.41ZM2079.44,30.71c40.18-.32,54.22-4.81,46.42,14.19-11.23,27.34-3.82,30.17-62.21,26.48l15.79-40.67Z"/>
        <path class="cls-2" d="M2271.36,40.93c11.18-29.92-29.1-24.46-51.77-23.02-25,1.59-28.88,20.88-36.65,42.54-4.74,13.21-1.59,22.6,12.28,23.81,63.67,5.57,62.68-7.32,76.14-43.33M2197,70.58c-1.68-9.11,3.5-18.66,6.51-26.62,3.99-10.55,7.44-13.32,19.68-13.32,44.32,0,37.72-.67,29.07,23.57-4.8,13.45-5.77,17.73-22.06,17.73l-33.2-1.36Z"/>
        <path class="cls-2" d="M2050.66,17.86c-14.55-.06-12.65-2.14-16.91,10.63-11.88,35.68-11.14,43.51-32.87,43.48-20.61-.03-38.36,6.01-29.85-14.99,3.52-8.69,12.15-31.1,12.92-39.27l-12.92.75c-2.85,4.71-15.94,40.59-17.22,45.74-6.32,25.49,22.51,20.07,39.99,20.13,22.21.07,34.35-3.46,41.37-19.79,2.97-6.92,14.87-38.46,15.49-46.68"/>
        <path class="cls-2" d="M1956.05,17.86l-71.04-.16c-10.13.46-9.76,2.2-10.63,12.88l30.04.26c-.86,14.34-16.69,38.87-17.21,53.47l12.71-.02,20.44-53.54,33.01-.67,2.68-12.22Z"/>
        <path class="cls-2" d="M2156.65,84.06c3.65-5.1,22.83-58.43,23.58-66.33l-13.37.68-23.23,65.71,13.03-.05Z"/>
        <path class="cls-1" d="M1270.91,85.78h-30.29l17.04-39.07-42.87,39.07h-10.75l-8.65-39.07-17.05,39.07h-30.15l30.28-69.48h38.15l8,34.87,38.54-34.87h38.02l-30.28,69.48ZM1305.76,28.41h74.05c-.58,1.01-1.57,2.33-2.98,3.95-1.4,1.63-2.92,3.23-4.55,4.82-1.62,1.59-3.19,2.96-4.71,4.11-1.52,1.15-2.63,1.73-3.36,1.73h-39.94l-7.47,17,12.34-9.96h29.99l-18.51,14.62h-25.87l-2.82,6.5h49.69c-.08.14-.27.45-.59.92-.33.47-.67.96-1.03,1.46-.36.51-.72.98-1.08,1.41-.36.43-.57.69-.65.76-.8.86-1.86,1.88-3.2,3.03-1.33,1.15-2.65,2.26-3.95,3.3-1.3,1.05-2.46,1.93-3.46,2.65-1.01.72-1.56,1.09-1.62,1.09h-65.28l25.01-57.38ZM1363.46,85.78l25-57.37h57.92c2.96,0,5.37.54,7.25,1.62,1.88,1.08,3.34,2.46,4.39,4.11,1.04,1.66,1.75,3.47,2.11,5.41.36,1.95.54,3.75.54,5.41,0,3.68-1.06,6.71-3.19,9.09-2.13,2.38-4.83,4.28-8.12,5.68-3.28,1.41-6.87,2.42-10.77,3.03-3.9.62-7.62,1.03-11.15,1.25l25.44,21.75h-27.71l-26.85-20.56-1.41.86-8.55,19.7h-24.9ZM1435.56,46.16v-1.19c0-.58-.14-1.07-.43-1.46-.29-.4-.94-.59-1.95-.59h-26.09l-7.47,16.89,11.47-9.63h20.78c1.3,0,2.24-.49,2.82-1.46.58-.97.86-1.82.86-2.54M1455.82,85.78l30.29-69.48h72.24c2.88,0,5.35.68,7.41,2.03,2.05,1.36,3.69,3.01,4.91,4.98,1.23,1.97,2.12,4.07,2.69,6.29.57,2.23.85,4.22.85,5.96,0,3.67-1.05,7.04-3.15,10.1-2.1,3.06-4.76,5.7-8,7.93-3.23,2.23-6.8,3.96-10.69,5.18-3.89,1.22-7.63,1.83-11.21,1.83h-44.18l-11.02,25.17h-30.15ZM1508.52,34.13l-8.65,19.92,15.07-11.14h25.17c.09,0,.31-.19.66-.59.35-.39.74-.85,1.18-1.37.44-.53.85-1.03,1.25-1.51.4-.48.64-.85.72-1.11l.26-.66c-.09-.09-.18-.31-.26-.66-.35-.44-.92-1.03-1.7-1.77-.79-.74-1.27-1.11-1.44-1.11h-32.25ZM1563.07,85.78l25.01-57.37h57.92c3.17,0,5.7.54,7.58,1.62,1.88,1.08,3.32,2.46,4.33,4.11,1.01,1.66,1.66,3.47,1.95,5.41.29,1.95.44,3.75.44,5.41,0,3.68-1.07,6.71-3.2,9.09-2.13,2.38-4.83,4.28-8.12,5.68-3.28,1.41-6.87,2.42-10.77,3.03-3.89.62-7.61,1.03-11.15,1.25l25.44,21.75h-27.71l-26.85-20.56-1.41.86-8.55,19.7h-24.9ZM1635.17,46.16v-1.19c0-.58-.14-1.07-.43-1.46-.29-.4-.94-.59-1.95-.59h-26.09l-7.47,16.89,11.47-9.63h20.78c1.3,0,2.24-.49,2.82-1.46.57-.97.86-1.82.86-2.54M1755.33,54.71c-.79,4.04-2.49,7.94-5.08,11.69-2.6,3.75-5.81,7.06-9.64,9.9-3.82,2.85-8.13,5.14-12.93,6.88-4.8,1.73-9.8,2.6-14.99,2.6h-15.16c-4.76,0-9.18-.33-13.26-.98-4.08-.65-7.6-1.75-10.55-3.3-2.96-1.55-5.27-3.66-6.93-6.33-1.66-2.67-2.49-6.02-2.49-10.07,0-.86.04-1.76.11-2.7.07-.94.18-1.91.33-2.92.65-3.9,2.23-7.7,4.76-11.42,2.53-3.72,5.65-7.04,9.36-9.96,3.72-2.92,7.83-5.27,12.34-7.04,4.51-1.76,9.04-2.65,13.58-2.65h19.38c4.91,0,9.32.38,13.26,1.13,3.94.76,7.27,1.93,10.02,3.52,2.74,1.59,4.85,3.67,6.33,6.23,1.48,2.56,2.22,5.61,2.22,9.15,0,1.01-.04,2.02-.11,3.04-.07,1.01-.25,2.09-.54,3.24M1689.19,57.96c-.07.07-.11.33-.11.76v.65c0,1.3.31,2.65.92,4.06.61,1.41,1.42,2.69,2.44,3.84,1.01,1.16,2.22,2.09,3.62,2.82,1.41.72,2.87,1.08,4.38,1.08h10.83c.72,0,1.89-.31,3.52-.92,1.62-.62,3.3-1.42,5.03-2.44,1.73-1.01,3.39-2.15,4.98-3.41,1.59-1.26,2.78-2.51,3.57-3.74.43-.5.76-.96.98-1.35.21-.4.4-.74.54-1.03l.44-1.08c.21-.72.33-1.05.33-.98.07-.57.12-1.17.16-1.78.04-.62.06-1.25.06-1.9,0-1.15-.13-2.31-.38-3.46-.25-1.15-.76-2.18-1.52-3.09-.76-.9-1.82-1.62-3.19-2.17-1.37-.54-3.14-.81-5.3-.81h-12.67c-1.37,0-2.87.31-4.49.92-1.63.62-3.21,1.43-4.76,2.44-1.56,1.02-2.99,2.15-4.33,3.41-1.34,1.27-2.4,2.51-3.19,3.74-.5.86-.92,1.68-1.25,2.44-.33.76-.52,1.42-.59,2"/>
      </g>
      <path class="cls-2" d="M2640.81,90.54h296.18l1.88-4.53h-296.18l-1.88,4.53ZM3230.14,55.74c0,3.41.35,2.59.53,4.72,2.55,0,6.64-.56,8.29.63,1.02.73,3.26,4.39,3.26,6.19,0,3.62-1.47,3.95-2.1,6.3,2.18-.18,5.42-1.14,7.83-1.62,19.03-3.78,42.22-9.41,61.46-9.41,4.86,0,7.59,1.21,10.5,3.15,1.72-2.57,6.33-6.01,9.45-12.06,13.19-25.54-2.72-39.91-27.3-39.91s-38.79-3.06-57.59,12.76c-8.42,7.08-14.33,17.23-14.33,29.25M3274.76,62.04c-5.94,0-10.18-1.49-12.85-5-11.03-14.47,10.21-26.5,18.62-26.5,16.57,0,24.67-2.19,24.67,12.6,0,8.62-15.16,18.9-24.15,18.9h-6.3ZM3120.42,69.39c4.46-1.04,4.45-1.57,10.5-1.57,1.16-4.36,12.46-11.28,22.57-8.92.38-1.61.82-2.02,1.58-3.15,2.24.52,5.78,3.79,7.8,5.33,4.92,3.75,5.25,1.66,7.95,5.69,2.97-1.43,10.67-2.92,13.45.2,1.19,1.33,1.05,2.51,1.77,4,5.64-1.31,10.26-3.84,16.27-5.25l-9.84-8.53c-1.01-.93-2.69-2.22-3.28-3.02,18.08,0,43.58-7.52,35.77-30.53-1.86-5.49-6.53-9.9-13.72-9.9h-65.63c-1.98,0-2.34,2.99-3.85,6.13l-21.35,49.52ZM3161.97,39.01c.93-2.28,3.03-6.04,3.6-8.47l26.26-.02c3.09-.04,5.77-.44,5.77,2.64,0,1.38-1.14,3.84-2.34,4.48-1.4.74-4.02.79-6.05.78-28.42-.16-15.48-.95-30.99,9.43l3.75-8.85ZM2891.53,78.84h28.35l5.07-11.73c1.13-2.54,3.53-9.57,5.43-11.37,2.65.7,20.49,15.57,24.68,18.37,2.16-1.45,15.24-11.52,17.32-12.08-.63-2.33-2.15-2.61-3.8-4.08l-4.07-3.8c12.05,0,36.75-4.87,36.75-20.47,0-23.82-15.54-19.95-32.55-19.95h-49.34l-24.33,56.52c-1.21,2.72-2.85,5.8-3.5,8.58M2939.3,34.21c1.48-3.19.97-3.67,2.63-3.67h28.88c1.21,0,1.57.36,1.57,1.57,0,5.79-.74,6.34-8.92,6.3-2.81-.02-17.48-.6-19.31.64l-10.62,8.8,5.77-13.65ZM2648.99,78.84h34.65c.5-2.15,1.3-3.58,2.03-5.33l16.87-38.25c.06,2.67,8.73,40.48,9.45,43.58,11.82,0,10.8,2.13,19.04-6.16l33.24-30.29c2.87-2.21,3.78-4.34,7.05-6.08-.33,1.44-1.49,3.81-2.12,5.24l-16.26,37.29h34.65l4.12-9.53c1.37-3.35,2.84-6.58,4.29-9.88,2.89-6.58,5.74-12.89,8.61-19.74L2821.71.09h-38.86c-4.12-.05-4.02-.58-6.18,1.68-1.7,1.78-2.28,2.16-4.15,3.72l-7.9,7.34c-1.59,1.61-2.65,2.11-4.21,3.65l-20.67,18.7c-1.6,1.28-2.45,2.63-4.13,3.75L2726.69.09h-43.57c-.66,1.38-1.48,3.46-2.03,4.8l-15,34.34c-1.46,3.49-2.75,6.49-4.32,9.85l-12.78,29.75ZM3004.4,57.84c6.39-.53,13.49-2.8,20.47,1.58,8.47,5.32,5.34,13.02,1.06,19.42h4.2c.14-1.74,1.99-5.35,2.8-7.17l9.27-21.18c10.91,0,48.68.64,56.49-.73,13.45-2.36,30.66-13.28,30.66-27.09,0-5.89-2.09-11.81-4.64-15.31-2.53-3.47-6.83-7.26-12.69-7.26h-81.37c-1.67,0-2.56,3.37-3.9,6.6l-20.76,47.48c-.59,1.31-.91,2.4-1.58,3.66M3050.95,30.36c1.77-3.67,3.45-9.79,5.42-9.79h33.6c2.05,0,4.73,2,4.73,3.67,0,1.55-2.1,3.41-3.67,5.77-37.67,0-21.94-3.64-44.62,11.55l4.55-11.2ZM2798.08,78.84h67.72c7.85.01,5.85.33,10.5-3.15l7.49-6.16c2.69-2.58,4.12-4.45,6.16-7.49h-56.17c1.17-2.21,2.01-4.67,3.15-6.82l25.22.02c4.85.03,4.84-1,10.94-5.86,1.65-1.32,3-2.36,4.67-3.73,1.66-1.37,3.06-2.31,4.73-3.67,1.33-1.1,3.72-2.42,4.32-4.08-4.09,0-32.4-.74-34.53.65l-12.2,9.85c1.04-4.46,6.25-13.1,7.35-17.84,13.3,0,26.6-.04,39.9,0,6.92.02,7.22.43,13.78-6.17,4.62-4.65,5.56-5.01,9.32-10.63h-83.99l-14.16,32.56c-2.38,5.43-4.61,10.56-6.99,16.11l-7.21,16.43ZM2916.73,121.88c3.07-.06,6.01-3.28,8.27-5.37,11.22-10.38,9.2-9.8,21.53-19.95,3.47-2.86,7.25-5.32,11.04-7.86,11.36-7.62,24.12-14.26,37.31-18.33,4.28-1.32,10.92-3.08,16.35-3.08,12.03,0,6.94,9.54-5.06,15.41-2.73,1.33-5.85,2.39-8.59,3.49l-17.02,6.6c-7.35,2.84-15.09,4.29-22.21,7.72-1.74.84-2.59,1.35-2.78,3.53l10.3,3.34c3.43,1.12,7.5,2.64,11.22,2.95-1.04,3.9-2.98,1.83-1.57,7.88,3.38,0,3.07-.09,4.94-1.88,1.23-1.19,2.5-2.25,2.94-3.89l25.14,7.94c2.68.86,5.6,1.69,8.4,2.62,7.67,2.55,25.77,10.96,33.66,10.96-2.77-5.24-6.65-6.3-12.44-8.56-9.69-3.79-30.19-11.67-38.82-14.21-2.44-.72-6.49-2.26-8.59-2.44,2.61-3.56,25.99-14.43,29.4-15.22-1.29,2.45-2.82,3.84-4.32,6.18-2.22,3.47-3.31,6.42,1.69,6.42,6.82,0,14.46-7.92,21-9.45-.49,2.12-1.05,2.51-1.05,5.25,5.06,1.21,7.06-1.89,11.04-4.18,3.08-1.77,5.89-3.24,9.26-4.92,5.25-2.63,13.46-7.44,19.07-8.75-2.96,5.59-8.2,5.72-8.4,14.7,13.56,0,32.86-12.61,44.1-15.22-2.11,3.15-3.68,4.09-3.68,9.45,4.71-.39,8.16-1.72,12.3-3.45,9.37-3.92,24.75-11.74,33.9-13.87-.93,1.38-1.33,1.65-2.63,2.63-3.46,2.61-6.3,4.5-6.3,9.45l14.87-7.18c1.94-.9,3.84-1.43,5.6-2.27-.71,2.63-8.51,8.92-1.05,8.92,5.64,0,9.41-3.76,14.7-4.2-.51,1.9-2.63,3.81-2.63,5.77,0,7.88,24.75-1.32,26.05-1.77,3.03-1.03,6.42-2.27,9.11-3.49,2.36-1.07,6.3-3.06,8.93-3.67-3.41,5.1-35.76,15.85-46.72,23.1l-9.44,6.3c-1.49,1.05-2.93,2.12-4.51,3.37-4.04,3.17-13.38,11.85-13.86,17.63,2.96,1.57,7.18-.52,10.16-1.91,9.76-4.58,18.73-10.62,28-16.1,8.23-4.87,30.38-22.65,34.91-23.9l17.1-4.42c24.62-5.27,49.61-10.9,74.76-13.43,2.16-.22,5.12-.57,6.74-.61-2.12-3.16-7.46-2.63-11.02-2.63-16.52,0-43.27,5.53-59.72,9.06l-19.03,4.07c1.95-2.91,5.71-4.77,7.25-8.03.84-1.77.38-1.98-.43-3.51,2.44-.21.92.56,2.1-1.05-.54-2.29-1.37-3.15-3.67-3.15-12.05,0-22.65,2.76-32.21,5.58-7.92,2.34-21.82,8.95-29.21,9.11,2.12-3.15,8.4-5.28,8.4-8.4,0-3.29-10.93.3-14.17,1.05.29-1.23.49-1.55.52-3.15-2.54-.68-1.31-1.05-4.2-1.05-4.35,0-18.86,6.26-22.95,8.02-7.09,3.04-14.73,7.03-22.19,8.78,2.84-3.89,10.74-6.55,12.07-11.55-.95-.63-.92-1.05-2.1-1.05-3.64,0-40.1,16.78-51.44,19.42,4.91-7.33,16.52-13.75,25.73-15.27,2.97-.49,2.08.04,5.25.04.81-3.03,1.57-1.06,1.57-5.25-6.24,0-11.57.94-16.7,2.2-9.98,2.46-18.32,6.31-27.55,10.25-2.45,1.04-3.8,1.9-6.45,2.99-2.38.98-4.15,2.38-6.52,2.93l5.89-6.18c-1.79-1.24-.48-.98-2.74-1.16,1.26-1.72.91-.38,2.1-2.63-.85-.56-2.95-2.1-4.2-2.1-11.8,0-39.43,13.16-51.27,19.08l-9.45,4.72c-14.96,7.48-7.86,3.74-20.12.88.62-.54.71-.63,1.56-1.06.79-.39.81-.36,1.9-.72,12.05-4.04,50.08-18.25,50.08-31.81,0-6.14-9.28-7.68-13.86-7.07-16.75,2.21-25.3,6.23-40.75,13.89-2.33,1.16-4.76,3.08-7.34,3.68.99-1.49,1.5-1.71,3.04-2.73l7.31-5.3c3.44-2.59,12.76-8.25,14.75-10.45,1.38-1.51,1.26-2.33,2.2-4.1-9.23,2.15-23.65,14.43-31.92,20.05-1.83,1.24-3.18,2.46-5.05,3.87-5.06,3.81-9.38,8-13.81,12.44-8.58,8.63-20.84,16.74-23.76,29.26M3184.99,85.66c1.46-2.75,6.46-5.2,9.19-6.56,9.11-4.55,26.99-9.19,37.01-9.19-.1.07-.26.15-.33.19l-4.99,2.36c-1.98.81-3.5,1.45-5.52,2.35-10.02,4.46-24.66,10.85-35.35,10.85M3023.82,97.21c1-1.89.83-1.3,2.48-2.78,5.45-4.88,18.3-11.4,25.35-11.4-3.14,2.73-16.66,8.85-20.65,10.85-2.06,1.03-5.13,2.84-7.18,3.32M3157.69,122.41c.99-1.47.49-.72,1.87-1.81,1.1-.87,1.25-1.13,2.21-1.99,3.21-2.89,11.22-8.05,14.92-10.28,2.8-1.69,18.48-10.31,21.95-11.12-2.03,3.03-15.48,11.02-19.43,13.64-4.34,2.89-16.75,10.44-21.52,11.55M3135.12,72.01c2.36,0,7.17-2.81,9.27-3.85,1.69-.83,2.53-1.22,4.07-2.23.89-.59,1.16-.77,1.89-1.26l2.09-1.58c-2.81-.06-5.23-1.85-13.22,2.53-.85.47-3,2.04-3.65,2.67-1.53,1.49-1.99,3.72-.46,3.72"/>
      <path class="cls-1" d="M128.43,128.55v-25.85h22.16v2.58h-18.8v8.24h16.54v2.58h-16.54v9.85h19.13v2.58h-22.49ZM176.47,129.19c-2.22,0-4.19-.3-5.91-.9-1.72-.6-3.18-1.48-4.36-2.63-1.18-1.15-2.09-2.57-2.71-4.25-.62-1.68-.94-3.61-.94-5.78s.31-4.1.94-5.78c.62-1.68,1.53-3.1,2.71-4.25,1.18-1.15,2.64-2.03,4.36-2.63,1.72-.6,3.69-.9,5.91-.9s4.19.3,5.91.9c1.72.6,3.18,1.48,4.36,2.63,1.18,1.15,2.09,2.57,2.71,4.25.62,1.68.94,3.61.94,5.78,0,2.56-.43,4.78-1.29,6.66-.86,1.87-2.11,3.38-3.75,4.52l1.81,1.55-1.87,1.97-2.46-2.2c-1.85.71-3.97,1.07-6.37,1.07ZM178.31,120.73l4.78,4.14c1.29-.86,2.27-2.05,2.94-3.57.67-1.52,1-3.41,1-5.67,0-1.85-.24-3.47-.71-4.85-.47-1.38-1.16-2.52-2.07-3.42-.9-.9-2.01-1.58-3.33-2.04-1.31-.45-2.8-.68-4.46-.68-3.34,0-5.93.9-7.79,2.71-1.85,1.81-2.78,4.57-2.78,8.27s.93,6.52,2.78,8.3c1.85,1.79,4.45,2.68,7.79,2.68,1.53,0,2.89-.17,4.07-.52l-3.97-3.59,1.74-1.78ZM205.87,118.66c0,1.25.18,2.36.55,3.34.37.98.96,1.81,1.79,2.49.83.68,1.91,1.2,3.23,1.57,1.32.37,2.95.55,4.86.55s3.54-.18,4.86-.55c1.32-.37,2.4-.89,3.23-1.57.83-.68,1.43-1.51,1.79-2.49.37-.98.55-2.09.55-3.34v-15.96h3.36v15.96c0,1.68-.25,3.17-.74,4.47-.5,1.3-1.29,2.4-2.37,3.3-1.09.89-2.51,1.58-4.26,2.05-1.76.47-3.89.71-6.41.71s-4.66-.24-6.41-.71c-1.76-.47-3.18-1.16-4.26-2.05-1.09-.89-1.88-1.99-2.37-3.3-.5-1.3-.74-2.79-.74-4.47v-15.96h3.36v15.96ZM243.8,128.55v-25.85h3.36v25.85h-3.36ZM260.86,128.55v-25.85h12.34c2.28,0,4.19.21,5.74.61,1.54.41,2.78.99,3.72,1.74.94.75,1.6,1.66,2,2.73.4,1.07.6,2.26.6,3.57s-.2,2.5-.6,3.55c-.4,1.06-1.07,1.96-2,2.71-.94.75-2.18,1.34-3.72,1.74-1.54.41-3.45.61-5.74.61h-8.98v8.56h-3.36ZM281.89,111.36c0-.93-.15-1.76-.44-2.5-.29-.74-.78-1.38-1.45-1.91-.68-.53-1.57-.94-2.68-1.23-1.11-.29-2.48-.44-4.12-.44h-8.98v12.12h8.98c1.64,0,3.01-.14,4.12-.42,1.11-.28,2-.68,2.68-1.2.68-.52,1.16-1.15,1.45-1.89.29-.74.44-1.59.44-2.54ZM320.6,128.55h-3.36l-3-6.14h-16.15l-3,6.14h-3.36l12.67-25.85h3.55l12.67,25.85ZM299.31,119.82h13.67l-6.4-13.06-.42-1.64-.42,1.64-6.43,13.06ZM332.52,128.55v-25.85h4.14l10.82,18.45.65,1.84.65-1.84,10.79-18.45h4.14v25.85h-2.97v-22.84l-2.52,5.27-8.76,14.86h-2.68l-8.85-14.83-2.55-5.3v22.84h-2.84ZM377.4,128.55v-25.85h3.36v25.85h-3.36ZM394.46,128.55v-25.85h22.16v2.58h-18.8v8.24h16.54v2.58h-16.54v9.85h19.13v2.58h-22.49ZM428.77,128.55v-25.85h3.36l19.45,21.42v-21.42h3.36v25.85h-3.36l-19.45-21.42v21.42h-3.36ZM479.4,128.55v-23.26h-13.18v-2.58h29.47v2.58h-12.92v23.26h-3.36ZM518.56,129.19c-2.2,0-4.16-.3-5.88-.9-1.72-.6-3.18-1.48-4.38-2.63-1.2-1.15-2.11-2.57-2.73-4.25-.63-1.68-.94-3.61-.94-5.78s.31-4.1.94-5.78c.62-1.68,1.53-3.1,2.73-4.25,1.2-1.15,2.65-2.03,4.38-2.63,1.72-.6,3.68-.9,5.88-.9s4.16.3,5.88.9c1.72.6,3.18,1.48,4.38,2.63,1.2,1.15,2.11,2.57,2.73,4.25.62,1.68.94,3.61.94,5.78s-.31,4.1-.94,5.78c-.62,1.68-1.53,3.1-2.73,4.25-1.2,1.15-2.65,2.03-4.38,2.63-1.72.6-3.68.9-5.88.9ZM518.56,126.61c1.66,0,3.14-.22,4.46-.66,1.31-.44,2.42-1.11,3.33-2.02.91-.9,1.59-2.05,2.07-3.43.47-1.38.71-3,.71-4.88s-.24-3.47-.71-4.85c-.47-1.38-1.16-2.52-2.07-3.42-.9-.9-2.01-1.58-3.33-2.04-1.31-.45-2.8-.68-4.46-.68-3.34,0-5.93.9-7.79,2.71-1.85,1.81-2.78,4.57-2.78,8.27s.93,6.49,2.78,8.29c1.85,1.8,4.45,2.7,7.79,2.7ZM544.86,109c0-.88.26-1.74.79-2.58.53-.84,1.35-1.58,2.47-2.23,1.12-.65,2.55-1.16,4.28-1.55,1.73-.39,3.8-.58,6.19-.58s4.63.21,6.45.63c1.82.42,3.31.99,4.47,1.7,1.16.71,2,1.54,2.52,2.49.52.95.72,1.96.61,3.04l-3.36.26c.09-.78-.07-1.5-.47-2.18-.4-.68-1.04-1.26-1.92-1.76-.88-.5-2.01-.88-3.39-1.16-1.38-.28-3.02-.42-4.91-.42-1.79,0-3.33.11-4.64.34-1.3.23-2.38.54-3.23.94-.85.4-1.48.86-1.89,1.39-.41.53-.61,1.08-.61,1.66,0,.82.35,1.5,1.05,2.04.7.54,1.62,1,2.76,1.37,1.14.38,2.44.71,3.91.99,1.46.28,2.96.57,4.49.87,1.53.3,3.03.64,4.49,1.02,1.46.38,2.77.86,3.91,1.44,1.14.58,2.06,1.29,2.76,2.13.7.84,1.05,1.87,1.05,3.1,0,.88-.26,1.76-.79,2.63-.53.87-1.35,1.65-2.46,2.34-1.11.69-2.53,1.24-4.26,1.66-1.73.42-3.8.63-6.19.63s-4.63-.22-6.45-.66c-1.82-.44-3.31-1.03-4.47-1.78-1.16-.74-2.01-1.61-2.54-2.6-.53-.99-.74-2.04-.63-3.13l3.36-.26c-.09.78.07,1.52.47,2.23.4.71,1.04,1.34,1.92,1.87.88.54,2.02.96,3.41,1.28,1.39.31,3.03.47,4.93.47,1.79,0,3.33-.13,4.64-.39,1.3-.26,2.38-.6,3.21-1.02.84-.42,1.46-.91,1.87-1.47.41-.56.61-1.15.61-1.78,0-.88-.35-1.61-1.05-2.18-.7-.57-1.62-1.06-2.76-1.45-1.14-.4-2.44-.73-3.91-1-1.47-.27-2.96-.54-4.49-.82-1.53-.28-3.03-.6-4.49-.95-1.47-.36-2.77-.81-3.91-1.37-1.14-.56-2.06-1.25-2.76-2.08-.7-.83-1.05-1.86-1.05-3.09ZM139.83,84.69h-34.51l19.43-44.52-48.85,44.52h-12.25l-9.86-44.52-19.42,44.52H0L34.51,5.51h43.48l9.11,39.74L131.02,5.51h43.32l-34.51,79.18ZM179.54,19.3h84.39c-.66,1.15-1.79,2.65-3.39,4.5-1.6,1.85-3.33,3.69-5.18,5.49-1.85,1.81-3.64,3.37-5.36,4.69-1.73,1.31-3.01,1.97-3.82,1.97h-45.52l-8.51,19.37,14.06-11.35h34.17l-21.09,16.65h-29.49l-3.21,7.4h56.63c-.08.16-.31.52-.67,1.05-.37.54-.76,1.09-1.17,1.66-.41.58-.82,1.12-1.23,1.6-.41.49-.66.79-.74.87-.9.99-2.12,2.14-3.64,3.45-1.52,1.32-3.02,2.57-4.5,3.77-1.48,1.19-2.79,2.2-3.95,3.02-1.15.82-1.77,1.23-1.85,1.23h-74.39l28.5-65.38ZM245.3,84.69l28.5-65.38h66c3.37,0,6.13.62,8.27,1.85,2.14,1.23,3.8,2.8,5,4.69,1.19,1.89,1.99,3.95,2.41,6.17.41,2.22.62,4.28.62,6.17,0,4.2-1.22,7.65-3.64,10.36-2.43,2.71-5.51,4.87-9.25,6.48-3.74,1.6-7.83,2.76-12.28,3.46-4.44.7-8.68,1.17-12.71,1.42l28.99,24.8h-31.58l-30.6-23.44-1.6.99-9.74,22.45h-28.38ZM327.46,39.54v-1.36c0-.66-.17-1.21-.49-1.66-.33-.45-1.07-.68-2.22-.68h-29.73l-8.52,19.25,13.08-10.98h23.69c1.48,0,2.55-.55,3.21-1.67.66-1.1.99-2.07.99-2.89M350.55,84.69L385.06,5.51h82.32c3.29,0,6.1.77,8.44,2.32,2.34,1.55,4.21,3.44,5.6,5.67,1.39,2.24,2.41,4.63,3.06,7.18.65,2.53.97,4.8.97,6.79,0,4.19-1.2,8.02-3.59,11.51-2.39,3.48-5.43,6.5-9.12,9.04-3.69,2.54-7.74,4.51-12.17,5.9-4.43,1.4-8.69,2.09-12.77,2.09h-50.35l-12.55,28.68h-34.36ZM410.61,25.83l-9.86,22.71,17.18-12.7h28.68c.1,0,.35-.22.75-.67.4-.45.84-.97,1.34-1.57.5-.59.97-1.17,1.42-1.72.45-.55.72-.97.82-1.27l.3-.75c-.1-.1-.2-.35-.3-.74-.4-.5-1.05-1.17-1.94-2.02-.89-.84-1.44-1.27-1.64-1.27h-36.75ZM472.77,84.69l28.5-65.38h66.01c3.61,0,6.49.62,8.63,1.85,2.14,1.23,3.78,2.8,4.93,4.69,1.15,1.89,1.89,3.95,2.22,6.17.33,2.22.49,4.28.49,6.17,0,4.2-1.22,7.65-3.64,10.36-2.43,2.71-5.51,4.87-9.25,6.48-3.74,1.6-7.84,2.76-12.28,3.46-4.44.7-8.68,1.17-12.71,1.42l28.99,24.8h-31.58l-30.59-23.44-1.6.99-9.75,22.45h-28.38ZM554.93,39.54v-1.36c0-.66-.16-1.21-.49-1.66-.33-.45-1.07-.68-2.22-.68h-29.73l-8.51,19.25,13.07-10.98h23.69c1.48,0,2.55-.55,3.21-1.67.66-1.1.99-2.07.99-2.89M691.87,49.28c-.9,4.61-2.84,9.05-5.8,13.33-2.96,4.28-6.62,8.04-10.98,11.29-4.36,3.25-9.27,5.86-14.75,7.83-5.47,1.98-11.16,2.96-17.08,2.96h-17.27c-5.43,0-10.46-.37-15.11-1.11-4.65-.74-8.65-1.99-12.03-3.77-3.37-1.76-6.01-4.17-7.89-7.21-1.9-3.04-2.84-6.87-2.84-11.47,0-.99.04-2.01.13-3.08.08-1.07.2-2.18.37-3.33.74-4.45,2.55-8.78,5.43-13.02,2.88-4.23,6.43-8.02,10.67-11.35,4.23-3.33,8.92-6,14.07-8.02,5.14-2.01,10.3-3.02,15.48-3.02h22.09c5.59,0,10.63.43,15.11,1.3,4.48.86,8.28,2.2,11.41,4.01,3.12,1.81,5.53,4.18,7.22,7.1,1.68,2.92,2.53,6.4,2.53,10.42,0,1.15-.05,2.31-.12,3.46-.08,1.15-.29,2.39-.62,3.7M616.49,52.98c-.08.08-.12.37-.12.87v.74c0,1.48.35,3.02,1.05,4.63.7,1.6,1.63,3.07,2.78,4.38,1.15,1.32,2.53,2.39,4.13,3.21,1.6.82,3.27,1.24,4.99,1.24h12.34c.82,0,2.16-.35,4.01-1.05,1.85-.7,3.76-1.62,5.74-2.77,1.97-1.15,3.86-2.45,5.67-3.89,1.81-1.44,3.17-2.86,4.07-4.25.49-.57.87-1.09,1.12-1.55.24-.45.45-.84.61-1.17l.49-1.23c.25-.82.37-1.2.37-1.12.08-.65.14-1.33.19-2.03.04-.7.06-1.42.06-2.16,0-1.31-.15-2.63-.44-3.95-.29-1.32-.86-2.49-1.73-3.52-.86-1.03-2.08-1.85-3.64-2.47-1.56-.62-3.57-.92-6.04-.92h-14.43c-1.57,0-3.27.35-5.12,1.05-1.85.7-3.66,1.63-5.43,2.77-1.77,1.15-3.42,2.45-4.93,3.89-1.52,1.44-2.74,2.86-3.64,4.25-.57.99-1.05,1.91-1.42,2.78-.37.86-.6,1.62-.68,2.28"/>
    </g>
  </g>
</svg>